<svg xmlns="http://www.w3.org/2000/svg" viewBox="-19.1 -19.1 180 180"><path fill="#5C7A84" d="M46.7 14L31 22.6 46.7 14"/><path fill="#E9325A" d="M94.1 58.8l-23.3 13v18.6l39.7-22.2-16.4-9.4"/><path fill="#54182F" d="M70.8 45.4v26.4l23.3-13-23.3-13.4"/><path fill="#D50A20" d="M70.8.8v26.6l39.7 22.2-16.4 9.2 16.4 9.4V22.8L70.8.8"/><path fill="#4D0511" d="M70.8 27.4v18l23.3 13.4 16.4-9.2-39.7-22.2"/><path fill="#5C7A84" d="M31 49.6v18.6l39.8 22.2V71.8L31 49.6"/><path fill="#213A44" d="M31 22.6v27l39.8 22.2V45.4L31 22.6"/><path fill="#54182F" d="M70.8.8L46.7 14l24.1 13.4V.8"/><path fill="#1E0B18" d="M46.7 14L31 22.6l39.8 22.8v-18L46.7 14"/><path d="M38.8 100.8h-2.4v-2.3h10.9c4.3 0 7.4 2.9 7.4 7.3 0 4-2.5 6.3-5 6.9v.1s.5.3.9 1l3.7 7.3c.4.8.9.8 1.8.8h.5v2.3h-1.1c-2.1 0-2.7-.3-3.6-1.9l-3.7-7.4c-.7-1.4-1.2-1.5-2.6-1.5h-4.3v10.8h-2.6l.1-23.4zm8.3 10.4c3.1 0 5-2 5-5.2s-1.9-5.1-4.9-5.1h-5.8v10.4h5.7zm14.5-2.4c0-.5-.3-.8-.8-.8h-1.5v-2.2h2.6c1.6 0 2.2.7 2.2 2.2v13.2c0 .5.3.8.8.8h1.5v2.2h-2.6c-1.6 0-2.2-.7-2.2-2.2v-13.2zm-.1-10.3h2.4v3.2h-2.4v-3.2zm9.5 21.3s2.1 2.8 5.7 2.8c2.1 0 3.9-1 3.9-2.9 0-4-10.3-3.3-10.3-9.2 0-3.3 2.9-5 6.6-5 1.9 0 5.6.7 5.6 3.3v1.6H80v-.9c0-1.4-2-1.9-3.2-1.9-2.6 0-4.1.9-4.1 2.7 0 4.1 10.3 3.2 10.3 9.3 0 3.1-2.8 5.2-6.4 5.2-4.8 0-7.1-3.2-7.1-3.2l1.5-1.8zm24.5-14.4c5.1 0 7.7 3.9 7.7 8.5 0 .4-.1 1.2-.1 1.2H89c.1 4.7 3.3 7.3 7.1 7.3 3.4 0 5.5-2.3 5.5-2.3l1.2 1.9s-2.7 2.6-6.9 2.6c-5.5 0-9.6-4-9.6-9.6.1-5.9 4.3-9.6 9.2-9.6zm5.2 7.8c-.1-3.8-2.5-5.7-5.2-5.7-3 0-5.7 2-6.3 5.7h11.5zm-41.4 17.5c-.8-.1-1.6-.1-2.6-.1h-1.4c-.1 0-.2.1-.2.1l-.1.1v9.1h3.4c1.5-.1 2.6-.7 3.4-1.8.7-1 .9-2.2.8-3.6-.2-2.1-1.4-3.5-3.3-3.8zm2.2 3.5c.1.7.1 1.4 0 2.1-.3 1.4-1.4 2.3-2.8 2.5H56v-7.2h1.5c.5 0 1.2 0 1.8.2 1.3.3 2 1.1 2.2 2.4zm14.3 3.4c-.1.1-.2.3-.5.5h-.1c-.7.5-1.5.8-2.2.8-.8 0-1.5-.3-2.1-.8-1.1-1-1.5-2.2-1.2-3.8.3-1.9 2-3.1 4-2.9.7.1 1.4.4 2.1.8l.2.1.6-.7-.3-.2c-.1 0-.1-.1-.1-.1-1.6-1-3.3-1.2-4.9-.4-2.1.9-3.2 3.3-2.5 5.7.5 2 2.4 3.4 4.5 3.4 1.1 0 2.3-.4 3.1-1.2.3-.2.5-.6.5-.6v-3.4h-1l-.1 2.8zm17.7-6.6c-.1-.3-.3-.4-.6-.4-.4 0-.5.2-.6.4l-2.6 7-.6 1.5-.1.3h1.1l.1-.3c.3-.9.7-1.7 1-2.6.1-.1 0-.1.2-.1h3.2c.1 0 .1 0 .1.1.2.6.4 1.1.6 1.6l.3.7c.1.3.2.6.6.6h.7l-1.4-3.7c-.7-1.8-1.4-3.5-2-5.1zm.7 4.7h-2.6c.4-1.2.9-2.4 1.3-3.6.2.6.4 1.2.6 1.7l.7 1.9zm-4.7-5.2H82v1h3.2v8.3h1.1v-8.3h3.2zm10.3 8.3v-8.3h-1v9.3h5.2v-1zm-34.7-8.3h1v9.2h-1zm14.2 0h1v9.2h-1z" fill="#E1E8EF"/></svg>